<?xml version="1.0" encoding="utf-8"?>
<!-- Generator: Adobe Illustrator 16.0.0, SVG Export Plug-In . SVG Version: 6.00 Build 0)  -->
<!DOCTYPE svg PUBLIC "-//W3C//DTD SVG 1.1//EN" "http://www.w3.org/Graphics/SVG/1.1/DTD/svg11.dtd">
<svg version="1.1" id="Layer_1" xmlns="http://www.w3.org/2000/svg" xmlns:xlink="http://www.w3.org/1999/xlink" x="0px" y="0px"
	 width="512px" height="512px" viewBox="0 0 512 512" enable-background="new 0 0 512 512" xml:space="preserve">
<path fill="#FFAD05" d="M284.2,72.267H47.133C21.144,72.267,0,93.411,0,119.4v211.934h331.332V119.4
	C331.332,93.411,310.189,72.267,284.2,72.267z"/>
<path fill="#6599CD" d="M0,361.333V387.6c0,8.838,7.163,16,16,16h26.344c-0.045-1.018-0.078-2.037-0.078-3.066
	c0-14.544,4.521-28.049,12.216-39.2H0z"/>
<ellipse fill="#3963A9" cx="111.412" cy="400.501" rx="39.194" ry="39.194"/>
<path fill="#6599CD" d="M180.667,400.533c0,1.029-0.033,2.049-0.078,3.066h150.745v-42.267H168.45
	C176.146,372.484,180.667,385.988,180.667,400.533z"/>
<ellipse fill="#3963A9" cx="400.532" cy="400.335" rx="39.193" ry="39.193"/>
<path fill="#6599CD" d="M488.782,280.695l-77.575-77.568c-2.813-2.813-6.629-4.394-10.606-4.394h-39.267V343.55
	c11.151-7.696,24.654-12.216,39.199-12.216c38.157,0,69.2,31.043,69.2,69.2c0,1.028-0.033,2.049-0.078,3.067H497
	c8.283,0,15-6.717,15-15v-51.854C512,315.584,503.756,295.679,488.782,280.695L488.782,280.695z"/>
<image overflow="visible" width="1920" height="1080" xlink:href="CF1A3204.jpg"  transform="matrix(1 0 0 1 780.0002 -82.6099)">
</image>
<path fill="#FFFFFF" d="M254.911,200.333l-61.7-46.275c-2.622-1.966-6.176-2.057-8.888-0.256c-2.726,1.808-4.007,5.129-3.224,8.292
	l5.317,21.27h-29.708c-4.263,0-7.712,3.45-7.712,7.712v30.85c0,4.264,3.45,7.713,7.712,7.713h29.708l-5.317,21.27
	c-0.783,3.164,0.498,6.484,3.224,8.293c2.749,1.821,6.286,1.688,8.888-0.257l61.7-46.275
	C259.029,209.59,259.022,203.408,254.911,200.333z"/>
<path fill="#FFFFFF" d="M77.5,217.816c0,6.534,5.373,11.83,12,11.83h75c6.627,0,12-5.296,12-11.83v-22.674
	c0-6.534-5.373-11.83-12-11.83h-75c-6.627,0-12,5.296-12,11.83V217.816z"/>
</svg>
