<?xml version="1.0" encoding="utf-8"?>
<!-- Generator: Adobe Illustrator 16.0.0, SVG Export Plug-In . SVG Version: 6.00 Build 0)  -->
<!DOCTYPE svg PUBLIC "-//W3C//DTD SVG 1.1//EN" "http://www.w3.org/Graphics/SVG/1.1/DTD/svg11.dtd">
<svg version="1.1" id="Layer_1" xmlns="http://www.w3.org/2000/svg" xmlns:xlink="http://www.w3.org/1999/xlink" x="0px" y="0px"
	 width="512px" height="512px" viewBox="0 0 512 512" enable-background="new 0 0 512 512" xml:space="preserve">
<path fill="#C6E1AF" d="M239.933,303.133c83.575,0,151.567-67.992,151.567-151.566C391.5,67.993,323.508,0,239.933,0
	C156.359,0,88.367,67.993,88.367,151.567C88.367,235.141,156.359,303.133,239.933,303.133z M303.134,199.767c0,8.284-6.716,15-15,15
	s-15-6.716-15-15V183.7c0-8.284,6.716-15,15-15s15,6.716,15,15V199.767z M277.527,92.76c5.857-5.858,15.355-5.858,21.213,0
	c5.858,5.858,5.858,15.355,0,21.213l-96.399,96.4c-5.857,5.858-15.355,5.858-21.213,0c-5.858-5.858-5.858-15.355,0-21.213
	L277.527,92.76z M176.734,103.367c0-8.284,6.717-15,15-15c8.284,0,15,6.716,15,15v16.066c0,8.284-6.716,15-15,15
	c-8.283,0-15-6.716-15-15V103.367z"/>
<path fill="#6599CD" d="M503.42,274.568c-38.922-19.323-71.242,3.199-81.592,13.548L282.673,427.273
	c-2.813,2.813-6.628,4.394-10.606,4.394h-63.843c-8.077,0-15.027-6.207-15.407-14.274c-0.405-8.615,6.458-15.726,14.983-15.726
	h51.841c3.979,0,7.794-1.58,10.607-4.394l42.802-42.801c6.3-6.301,1.838-17.072-7.071-17.072H160.741
	c-25.47,0-49.409,9.914-67.414,27.92L73.053,385.6H15c-8.284,0-15,6.717-15,15V497c0,8.284,6.716,15,15,15h273.134
	c3.979,0,7.794-1.581,10.605-4.394L507.606,298.74c2.813-2.813,4.395-6.629,4.395-10.606C512,282.148,508.49,276.979,503.42,274.568
	z"/>
</svg>
