<?xml version="1.0" encoding="utf-8"?>
<!-- Generator: Adobe Illustrator 16.0.0, SVG Export Plug-In . SVG Version: 6.00 Build 0)  -->
<!DOCTYPE svg PUBLIC "-//W3C//DTD SVG 1.1//EN" "http://www.w3.org/Graphics/SVG/1.1/DTD/svg11.dtd">
<svg version="1.1" id="Réteg_1" xmlns="http://www.w3.org/2000/svg" xmlns:xlink="http://www.w3.org/1999/xlink" x="0px" y="0px"
	 width="850.39px" height="850.39px" viewBox="0 0 850.39 850.39" enable-background="new 0 0 850.39 850.39" xml:space="preserve">
<path fill-rule="evenodd" clip-rule="evenodd" fill="#FBAC18" d="M612.1,272.708l13.713-54.877H481.497l13.722,54.877H612.1z
	 M612.1,272.708"/>
<path fill-rule="evenodd" clip-rule="evenodd" fill="#FBAC18" d="M759.51,456.246c8.225,0,16.249,0.825,24.023,2.371V90.881
	c0-41.625-33.858-75.491-75.482-75.491H90.491C48.866,15.39,15,49.257,15,90.881v385.978c0,41.614,33.866,75.48,75.491,75.48
	h214.082c12.523-54.946,61.746-96.094,120.427-96.094H759.51z M141.948,118.315h102.934c13.263,0,24.023,10.761,24.023,24.023
	c0,13.271-10.761,24.023-24.023,24.023H141.948c-13.263,0-24.023-10.752-24.023-24.023
	C117.924,129.076,128.685,118.315,141.948,118.315L141.948,118.315z M219.15,423.68h-77.203c-13.263,0-24.023-10.752-24.023-24.023
	c0-13.263,10.761-24.023,24.023-24.023h77.203c13.261,0,24.023,10.76,24.023,24.023C243.174,412.928,232.411,423.68,219.15,423.68
	L219.15,423.68z M296.341,320.754H141.948c-13.263,0-24.023-10.751-24.023-24.023c0-13.263,10.761-24.023,24.023-24.023h154.393
	c13.271,0,24.023,10.761,24.023,24.023C320.364,310.003,309.612,320.754,296.341,320.754L296.341,320.754z M502.192,397.947
	c-13.213,0-24.023-10.76-24.023-24.023c0-13.255,10.811-24.023,24.023-24.023s24.023,10.769,24.023,24.023
	C526.216,387.187,515.405,397.947,502.192,397.947L502.192,397.947z M605.126,397.947c-13.213,0-24.023-10.76-24.023-24.023
	c0-13.255,10.811-24.023,24.023-24.023s24.023,10.769,24.023,24.023C629.149,387.187,618.339,397.947,605.126,397.947
	L605.126,397.947z M399.265,166.362c-13.263,0-24.023-10.752-24.023-24.023c0-13.263,10.761-24.023,24.023-24.023
	c32.299,0,60.527,20.963,70.103,51.468h187.216c7.399,0,14.381,3.41,18.936,9.242c4.555,5.83,6.164,13.428,4.371,20.603
	l-25.725,102.934c-2.678,10.694-12.287,18.192-23.307,18.192H476.467c-11.027,0-20.637-7.499-23.307-18.192l-29.22-116.998
	C421.054,174.255,410.928,166.362,399.265,166.362L399.265,166.362z M399.265,166.362"/>
<path fill-rule="evenodd" clip-rule="evenodd" fill="#6599CC" d="M349.509,759.9c0,42.566,34.668,75.49,75.491,75.49h334.51
	c40.823,0,75.49-32.924,75.49-75.49V655.264H349.509V759.9z M349.509,759.9"/>
<path fill-rule="evenodd" clip-rule="evenodd" fill="#C6E2B0" d="M759.51,504.292H425c-40.74,0-75.491,32.849-75.491,75.49v27.442
	H835v-27.442C835,537.216,800.333,504.292,759.51,504.292L759.51,504.292z M759.51,504.292"/>
<path fill-rule="evenodd" clip-rule="evenodd" fill="#3964AA" d="M246.583,655.264h-53.168c-13.271,0-24.023,10.763-24.023,24.023
	c0,13.271,10.752,24.023,24.023,24.023h108.046V600.386h-54.878V655.264z M246.583,655.264"/>
</svg>
