<?xml version="1.0" encoding="utf-8"?>
<!-- Generator: Adobe Illustrator 16.0.0, SVG Export Plug-In . SVG Version: 6.00 Build 0)  -->
<!DOCTYPE svg PUBLIC "-//W3C//DTD SVG 1.1//EN" "http://www.w3.org/Graphics/SVG/1.1/DTD/svg11.dtd">
<svg version="1.1" id="Capa_1" xmlns="http://www.w3.org/2000/svg" xmlns:xlink="http://www.w3.org/1999/xlink" x="0px" y="0px"
	 width="512px" height="512px" viewBox="0 0 512 512" enable-background="new 0 0 512 512" xml:space="preserve">
<path fill="#6599CD" d="M107,496l121.88-122.113c-54.283-7.605-101.418-37.529-131.809-80.301L0,390h107V496z"/>
<path fill="#6599CD" d="M283.12,373.887L405,496V390h107l-97.072-96.414C384.537,336.357,337.403,366.281,283.12,373.887z"/>
<path fill="#FFAD05" d="M229.735,224.667L256,210.854l26.265,13.813l-5.01-29.268l21.255-20.698l-29.37-4.277L256,143.808
	l-13.141,26.616l-29.37,4.277l21.256,20.698L229.735,224.667z"/>
<path fill="#FFAD05" d="M256,346c90.98,0,165-74.02,165-165c0-90.981-74.02-165-165-165C165.019,16,91,90.019,91,181
	C91,271.98,165.019,346,256,346z M222.938,143.002L256,76.044l33.062,66.958l73.901,10.752l-53.481,52.134l12.627,73.594L256,244.75
	l-66.108,34.73l12.627-73.594l-53.48-52.134L222.938,143.002z"/>
</svg>
